<?xml version="1.0" encoding="UTF-8" standalone="no"?>
<svg
   xmlns:dc="http://purl.org/dc/elements/1.1/"
   xmlns:cc="http://creativecommons.org/ns#"
   xmlns:rdf="http://www.w3.org/1999/02/22-rdf-syntax-ns#"
   xmlns:svg="http://www.w3.org/2000/svg"
   xmlns="http://www.w3.org/2000/svg"
   xmlns:sodipodi="http://sodipodi.sourceforge.net/DTD/sodipodi-0.dtd"
   xmlns:inkscape="http://www.inkscape.org/namespaces/inkscape"
   inkscape:version="1.0 (4035a4fb49, 2020-05-01)"
   sodipodi:docname="debug.svg"
   xml:space="preserve"
   style="enable-background:new 0 0 32 32;"
   viewBox="0 0 32 32"
   y="0px"
   x="0px"
   id="Icons"
   version="1.1"><metadata
   id="metadata29"><rdf:RDF><cc:Work
       rdf:about=""><dc:format>image/svg+xml</dc:format><dc:type
         rdf:resource="http://purl.org/dc/dcmitype/StillImage" /></cc:Work></rdf:RDF></metadata><defs
   id="defs27" /><sodipodi:namedview
   inkscape:current-layer="Icons"
   inkscape:window-maximized="1"
   inkscape:window-y="-8"
   inkscape:window-x="1912"
   inkscape:cy="14.071723"
   inkscape:cx="18.533328"
   inkscape:zoom="13.28125"
   showgrid="false"
   id="namedview25"
   inkscape:window-height="1017"
   inkscape:window-width="2560"
   inkscape:pageshadow="2"
   inkscape:pageopacity="0"
   guidetolerance="10"
   gridtolerance="10"
   objecttolerance="10"
   borderopacity="1"
   bordercolor="#666666"
   pagecolor="#ffffff" />
<style
   id="style2"
   type="text/css">
	.st0{fill:none;stroke:#000000;stroke-width:2;stroke-linecap:round;stroke-linejoin:round;stroke-miterlimit:10;}
	.st1{fill:none;stroke:#000000;stroke-width:2;stroke-linejoin:round;stroke-miterlimit:10;}
</style>
<ellipse
   ry="8.3199997"
   rx="7.4164705"
   cy="15.924706"
   cx="16.075294"
   id="path935"
   style="fill:#000000;fill-opacity:1;stroke:none;stroke-width:1;stroke-linecap:square;stroke-miterlimit:10;stroke-dasharray:none;stroke-opacity:1;paint-order:markers stroke fill" /><path
   d="M 7 4 A 1 1 0 0 0 6 5 L 6 5.4003906 C 6 7.8479269 7.119329 10.126508 9.0585938 11.548828 C 8.5287075 12.592861 8.1759284 13.760703 8.0527344 15 L 3 15 A 1 1 0 0 0 2 16 A 1 1 0 0 0 3 17 L 8.0527344 17 C 8.1759284 18.239297 8.5287075 19.407139 9.0585938 20.451172 C 7.119329 21.873492 6 24.152074 6 26.599609 L 6 27 A 1 1 0 0 0 7 28 A 1 1 0 0 0 8 27 L 8 26.599609 C 8 24.785334 8.7885266 23.1637 10.150391 22.125 C 11.600518 23.881664 13.666715 25 16 25 C 18.336522 25 20.388196 23.871183 21.824219 22.105469 C 23.201807 23.143217 24 24.774056 24 26.599609 L 24 27 A 1 1 0 0 0 25 28 A 1 1 0 0 0 26 27 L 26 26.599609 C 26 24.139744 24.869552 21.85037 22.912109 20.429688 C 23.429975 19.391625 23.765641 18.228423 23.888672 17 L 29 17 A 1 1 0 0 0 30 16 A 1 1 0 0 0 29 15 L 23.888672 15 C 23.765665 13.771893 23.429751 12.608158 22.912109 11.570312 C 24.869552 10.14963 26 7.860257 26 5.4003906 L 26 5 A 1 1 0 0 0 25 4 A 1 1 0 0 0 24 5 L 24 5.4003906 C 24 7.224983 23.202418 8.8547437 21.826172 9.8925781 C 21.290124 9.2333042 20.668208 8.6657227 19.976562 8.2109375 A 1 1 0 0 0 20 8 C 20 5.7901961 18.209804 4 16 4 C 13.790196 4 12 5.7901961 12 8 A 1 1 0 0 0 12.019531 8.1972656 C 11.321531 8.6497708 10.69317 9.2174846 10.150391 9.875 C 8.7885266 8.8363003 8 7.2146665 8 5.4003906 L 8 5 A 1 1 0 0 0 7 4 z M 16 6 C 16.921286 6 17.610668 6.4885011 17.876953 7.2597656 C 17.303978 7.1034885 16.707293 7.0134249 16.087891 7.0058594 A 1 1 0 0 0 16 7 A 1 1 0 0 0 15.916016 7.0039062 C 15.296939 7.0110955 14.699606 7.1027269 14.125 7.2578125 C 14.391853 6.4878473 15.079606 6 16 6 z M 15 9.1054688 L 15 17.585938 L 11.703125 20.882812 C 10.656141 19.633469 10 17.923739 10 16 C 10 12.467533 12.206828 9.6567203 15 9.1054688 z M 17 9.1054688 C 19.793172 9.6567203 22 12.467533 22 16 C 22 17.923739 21.343859 19.633469 20.296875 20.882812 L 17 17.585938 L 17 9.1054688 z M 16 19.414062 L 18.783203 22.197266 C 17.945008 22.710168 16.996957 23 16 23 C 15.003043 23 14.054992 22.710168 13.216797 22.197266 L 16 19.414062 z "
   style="color:#000000;font-style:normal;font-variant:normal;font-weight:normal;font-stretch:normal;font-size:medium;line-height:normal;font-family:sans-serif;font-variant-ligatures:normal;font-variant-position:normal;font-variant-caps:normal;font-variant-numeric:normal;font-variant-alternates:normal;font-variant-east-asian:normal;font-feature-settings:normal;font-variation-settings:normal;text-indent:0;text-align:start;text-decoration:none;text-decoration-line:none;text-decoration-style:solid;text-decoration-color:#000000;letter-spacing:normal;word-spacing:normal;text-transform:none;writing-mode:lr-tb;direction:ltr;text-orientation:mixed;dominant-baseline:auto;baseline-shift:baseline;text-anchor:start;white-space:normal;shape-padding:0;shape-margin:0;inline-size:0;clip-rule:nonzero;display:inline;overflow:visible;visibility:visible;isolation:auto;mix-blend-mode:normal;color-interpolation:sRGB;color-interpolation-filters:linearRGB;solid-color:#000000;solid-opacity:1;vector-effect:none;fill:#ffffff;fill-opacity:1;fill-rule:nonzero;stroke:#000000;stroke-width:4;stroke-linecap:round;stroke-linejoin:round;stroke-miterlimit:10;stroke-dasharray:none;stroke-dashoffset:0;stroke-opacity:1;color-rendering:auto;image-rendering:auto;shape-rendering:auto;text-rendering:auto;enable-background:accumulate;stop-color:#000000;stop-opacity:1;opacity:1;paint-order:stroke markers fill"
   id="path896" />









</svg>
