<?xml version="1.0" encoding="UTF-8" standalone="no"?>
<svg
   xmlns:dc="http://purl.org/dc/elements/1.1/"
   xmlns:cc="http://creativecommons.org/ns#"
   xmlns:rdf="http://www.w3.org/1999/02/22-rdf-syntax-ns#"
   xmlns:svg="http://www.w3.org/2000/svg"
   xmlns="http://www.w3.org/2000/svg"
   xmlns:sodipodi="http://sodipodi.sourceforge.net/DTD/sodipodi-0.dtd"
   xmlns:inkscape="http://www.inkscape.org/namespaces/inkscape"
   inkscape:version="1.0 (4035a4fb49, 2020-05-01)"
   sodipodi:docname="alert.svg"
   id="svg4"
   version="1.1"
   fill="none"
   viewBox="0 0 24 24"
   height="24"
   width="24">
  <metadata
     id="metadata10">
    <rdf:RDF>
      <cc:Work
         rdf:about="">
        <dc:format>image/svg+xml</dc:format>
        <dc:type
           rdf:resource="http://purl.org/dc/dcmitype/StillImage" />
      </cc:Work>
    </rdf:RDF>
  </metadata>
  <defs
     id="defs8" />
  <sodipodi:namedview
     inkscape:current-layer="svg4"
     inkscape:window-maximized="1"
     inkscape:window-y="-8"
     inkscape:window-x="1912"
     inkscape:cy="15.655669"
     inkscape:cx="8.8716879"
     inkscape:zoom="17.708333"
     showgrid="false"
     id="namedview6"
     inkscape:window-height="1017"
     inkscape:window-width="2560"
     inkscape:pageshadow="2"
     inkscape:pageopacity="0"
     guidetolerance="10"
     gridtolerance="10"
     objecttolerance="10"
     borderopacity="1"
     bordercolor="#666666"
     pagecolor="#ffffff" />
  <ellipse
     ry="6.1293678"
     rx="6.1493335"
     cy="13.516554"
     cx="11.859428"
     id="path839"
     style="opacity:1;fill:#0e0f11;fill-opacity:1;stroke:none;stroke-width:4;stroke-linecap:square;stroke-linejoin:miter;stroke-miterlimit:4;stroke-dasharray:none;stroke-opacity:1;paint-order:markers stroke fill" />
  <path
     style="fill:#ffffff;fill-opacity:1;stroke:#0e0f11;stroke-width:3.45914;stroke-miterlimit:4;stroke-dasharray:none;stroke-opacity:1;paint-order:markers stroke fill"
     id="path2"
     fill="#293644"
     d="m 15.169075,3.2850451 c 0,-0.4375581 -0.354714,-0.7922687 -0.792268,-0.7922687 H 9.6231948 c -0.437569,0 -0.792269,0.3547106 -0.792269,0.7922687 0,0.4375541 0.3547,0.7922686 0.792269,0.7922686 H 11.207733 V 5.7010049 C 9.6144008,5.8593318 8.1593988,6.4899935 6.9859698,7.4500725 L 6.2220648,6.6861672 c -0.309381,-0.3093968 -0.811045,-0.3093968 -1.120426,0 -0.309381,0.3094046 -0.309381,0.8110374 0,1.1204421 l 0.763905,0.7639054 c -1.117099,1.3653641 -1.78823,3.1118643 -1.78823,5.0140223 0,4.375541 3.547146,7.922686 7.9226872,7.922686 4.37558,0 7.922686,-3.547145 7.922686,-7.922686 0,-4.1081899 -3.126831,-7.4860668 -7.130418,-7.8835639 V 4.0773137 h 1.584538 c 0.437554,0 0.792268,-0.3547145 0.792268,-0.7922686 z m -3.169074,3.9613431 c 3.500464,0 6.338149,2.8376848 6.338149,6.3381488 0,3.50048 -2.837685,6.33815 -6.338149,6.33815 -3.5004802,0 -6.3381492,-2.83767 -6.3381492,-6.33815 0,-1.750438 0.708526,-3.333898 1.856365,-4.4817446 1.147918,-1.1478467 2.7313452,-1.8564042 4.4817842,-1.8564042 z m 3.729295,3.7292878 c 0.309397,-0.309381 0.309397,-0.81103 0,-1.1204343 -0.309404,-0.3093968 -0.811037,-0.3093968 -1.120442,0 L 12.410317,12.053795 C 12.279355,12.018697 12.141817,12 12.000001,12 c -0.87514,0 -1.584537,0.709398 -1.584537,1.584537 0,0.87514 0.709397,1.584538 1.584537,1.584538 0.87514,0 1.584537,-0.709398 1.584537,-1.584538 0,-0.141816 -0.0187,-0.279354 -0.0538,-0.410316 z"
     clip-rule="evenodd"
     fill-rule="evenodd" />
</svg>
